#!OML:ASF F:\VICON\USERDATA\INSTALL\rory3\rory3.ASF
:FULLY-SPECIFIED
:DEGREES
63
root 0.725681540272093 17.863631464557958 25.9759356290214 -3.7802724070380274 -0.5651126249666621 2.2172526335834495
lfemur 0.406897916000343 -3.412882725712156 -27.62948921593298
ltibia 23.79875608995147
lfoot -18.401935283685486 1.604430426366429
ltoes 0.7557914422336074
rfemur -32.17339642529454 -2.461111661346916 20.099443518540923
rtibia 60.33934489558209
rfoot -8.464687094333703 -10.98718085988418
rtoes 2.4528979090880303
lowerback 10.902819484582956 -0.4212142062541564 -3.048235644292329
upperback 0.5573402965153391 -0.8664101579262092 0.8878906704022803
thorax -5.463468210731373 -0.3366824475860991 2.8532142416543502
lowerneck -16.0089842442727 -2.5640201555080795 -2.4781700175072805
upperneck 19.597359838958408 -3.15729719015565 1.073002344634681
head 8.811515371127978 -1.5459643388432753 0.3638777712644514
lclavicle -1.171417099877052e-15 -9.730021585374531e-16
lhumerus -27.16438093693536 -1.8877249131847107 80.82080676977601
lradius 24.346556709912818
lwrist 5.748723869194789
lhand -29.554207114918135 21.69327981690325
lfingers 7.125020000000056
lthumb -2.8865620296190997 51.669022836083016
rclavicle -1.171417099877052e-15 -9.730021585374531e-16
rhumerus -32.402129659844036 -21.38397570279035 -77.83797061057005
rradius 25.901092824874972
rwrist 3.3775894658313454
rhand -17.167609272359783 30.18179641478699
rfingers 7.125020000000056
rthumb 9.074003018294324 -6.674246344192437
64
root 0.7232990029037788 17.82943173803883 26.81501676814701 -2.922276250105343 0.057809372856849284 2.725835024695835
lfemur 4.048859338724025 -3.0020935071650996 -28.059011034055636
ltibia 19.485759053771098
lfoot -19.127416054541122 1.3477899936502435
ltoes -0.062310319187818486
rfemur -32.85844656292682 -0.3914520760268898 18.838349148471963
rtibia 44.98895074350112
rfoot -8.257647418028588 -13.975184047492117
rtoes 0.25374417368783897
lowerback 10.539768351828677 -0.7217223203687216 -3.7620446302229293
upperback 0.5072832893314758 -1.3417074270123925 0.9306711176264544
thorax -5.2733381358890465 -0.5551036035323506 3.3791237501428166
lowerneck -16.126817954863487 -2.6023062384468036 -2.5891055286809674
upperneck 19.216490308516928 -3.206395230242588 1.2201984939648873
head 8.708184790513055 -1.5608349014161211 0.4275053072804166
lclavicle -1.1461177788440665e-15 -9.534128237177389e-16
lhumerus -24.94429944305924 -3.6206291863499125 80.4956792218903
lradius 25.90697646305265
lwrist 6.63478835041416
lhand -29.53805627686203 22.30171804762429
lfingers 7.125020000000056
lthumb -2.871013011363826 52.27453255389017
rclavicle -1.1461177788440665e-15 -9.534128237177389e-16
rhumerus -33.29318483541089 -21.267144602431046 -77.59143277198638
rradius 25.868877527676105
rwrist 3.1398224327987645
rhand -17.12267373037307 30.24353144562488
rfingers 7.125020000000056
rthumb 9.11731691062895 -6.396373005822175
65
root 0.7145586210592512 17.78451250263889 27.581941249135408 -2.045704446297269 0.6612342503685853 3.170938930538656
lfemur 7.934895626067171 -2.7081602956292334 -28.29840103508333
ltibia 14.75129105837162
lfoot -19.516602455361845 0.768642899310727
ltoes -1.795096358191996
rfemur -32.57143644340922 2.3409129452973465 17.31192091872694
rtibia 29.670584504072007
rfoot -8.023669832673534 -16.81664228712345
rtoes -1.7933026489552208
lowerback 10.07485323239475 -0.9934263522805812 -4.418654068367342
upperback 0.4300966721980885 -1.767458001363043 0.9666431665240405
thorax -5.0595379630702375 -0.7517740509274501 3.8471991617266097
lowerneck -16.26707419895655 -2.6269164416389343 -2.640751060624143
upperneck 18.951533623603662 -3.2490737374364556 1.3376513381524382
head 8.64831089535276 -1.570038699969953 0.47122660241191583
lclavicle -1.1549600961141545e-15 -9.602594333080857e-16
lhumerus -22.884664906588988 -4.789325303111854 80.044926184059
lradius 27.183723968835743
lwrist 7.348063273410144
lhand -29.58818996040988 22.649271225193424
lfingers 7.125020000000056
lthumb -2.9194814438442225 52.616662930658016
rclavicle -1.1549600961141545e-15 -9.602594333080857e-16
rhumerus -34.18586658562759 -21.82463502307384 -77.07114092604488
rradius 25.18788797665109
rwrist 3.5614602645042863
rhand -17.10459262514956 30.271797620165962
rfingers 7.125020000000056
rthumb 9.13474647562216 -6.210305112123718
66
root 0.7005997904141866 17.7259383544644 28.409072216241896 -1.3394690722780296 1.2417799171123225 3.4673561155611217
lfemur 11.710122733212405 -2.7478114109761824 -28.29454424132063
ltibia 11.139487799278054
lfoot -19.523699479132414 -0.050880618521635945
ltoes -4.648927803346119
rfemur -31.683674463084124 4.816483860960513 16.12297322254765
rtibia 17.95628162998952
rfoot -7.902966492676006 -18.215028711792908
rtoes -3.7669120837880747
lowerback 9.688501808816413 -1.2114867031216363 -4.886089580548976
upperback 0.35840748655463045 -2.0994062290461826 1.034304012070181
thorax -4.8740212536488094 -0.9067287717614095 4.237530518847744
lowerneck -16.42193633316839 -2.6460501285561104 -2.6605795965531724
upperneck 18.849623070549992 -3.283701142797697 1.4270256495489193
head 8.648547766192689 -1.5772904235052092 0.49954762501746947
lclavicle -1.0858880714950823e-15 -9.067767424681234e-16
lhumerus -21.20155312420547 -5.351271005129361 79.68971021201376
lradius 28.40334418307895
lwrist 7.870107901959328
lhand -29.781913164681477 22.47182960986897
lfingers 7.125020000000056
lthumb -3.106591593490753 52.433861746163274
rclavicle -1.0858880714950823e-15 -9.067767424681234e-16
rhumerus -35.048776984331525 -22.922069462597797 -76.19313902698234
rradius 24.241070933892964
rwrist 4.648781548338561
rhand -17.149758121198175 30.312879506974678
rfingers 7.125020000000056
rthumb 9.091196730732376 -6.167987863517672
67
root 0.6758484372874751 17.656756313361363 29.110470678571676 -0.9931510498965989 1.668101775997655 3.46056315595245
lfemur 14.610973503103747 -3.292484503819896 -28.10001274763865
ltibia 9.677731789838752
lfoot -19.088317203960454 -1.1632218187313752
ltoes -8.612196477564742
rfemur -31.011617119623907 6.074123417529071 15.793410654002969
rtibia 12.255081692161497
rfoot -7.6291074369404335 -17.49902922524059
rtoes -5.343051026975202
lowerback 9.479548404483703 -1.3781587226177394 -5.091450614397772
upperback 0.31345039415662407 -2.334649724848696 1.1589578249863468
thorax -4.786548051013269 -1.018138623052391 4.490726112430504
lowerneck -16.59366708823758 -2.662157447301392 -2.667384737026755
upperneck 18.84729316382425 -3.303750150667046 1.4300095945080167
head 8.684678723327107 -1.5838893193361185 0.4981720822377244
lclavicle -1.1817256288153287e-15 -9.809840387384656e-16
lhumerus -20.22812091460197 -5.437508979133646 79.48472120619431
lradius 29.027619215979243
lwrist 8.067247066112767
lhand -30.21825599860743 21.60311424917562
lfingers 7.125020000000056
lthumb -3.527962301475487 51.56121076682564
rclavicle -1.1817256288153287e-15 -9.809840387384656e-16
rhumerus -36.03912522713343 -24.60634330145823 -75.07108505099623
rradius 22.72907811082967
rwrist 6.189684155804726
rhand -17.271887409758552 30.275617746320506
rfingers 7.125020000000056
rthumb 8.973399928807368 -6.3326129725437275
68
root 0.6583079575513273 17.602369955848914 30.142579533273725 -0.9756814825610661 1.941614578852108 3.1242146353418945
lfemur 16.674980060055315 -4.176446695166903 -27.51531823724082
ltibia 11.385526126326017
lfoot -17.326320236150305 -2.60933388786219
ltoes -13.185687723859473
rfemur -30.426755725091184 6.070099048707956 16.621686936421412
rtibia 12.986594974330607
rfoot -6.454180419798243 -14.80212336209989
rtoes -5.412717320516137
lowerback 9.47939681055211 -1.475997331763916 -4.875583750007603
upperback 0.30809461218647155 -2.4320749011855214 1.3924858952381216
thorax -4.756808305251194 -1.0690853741894886 4.636959257765096
lowerneck -16.708019195703056 -2.624473115760401 -2.6457929838800522
upperneck 19.029512379979995 -3.225157450491676 1.324287320246778
head 8.769210728378455 -1.5586759474925782 0.464123548723857
lclavicle -1.036353159654223e-15 -8.684217295686046e-16
lhumerus -19.783307361162986 -4.895655306557961 79.57020904746047
lradius 29.828379581433175
lwrist 8.259094638402539
lhand -30.776042933487 20.63367192825198
lfingers 7.125020000000057
lthumb -4.066590181712258 50.58871048820562
rclavicle -1.036353159654223e-15 -8.684217295686046e-16
rhumerus -36.96159943042481 -26.491368308277487 -73.43346766442663
rradius 21.52838486495334
rwrist 8.356834218439808
rhand -17.38694146268175 30.335697330696267
rfingers 7.125020000000057
rthumb 8.862416372002698 -6.493683946852252
69
root 0.6341322767807565 17.57732188422264 31.156833690833192 -1.2476588137929343 1.9923421711449651 2.3506903744918035
lfemur 17.32406336060915 -5.1026860432109595 -26.466519730418945
ltibia 15.993345366092466
lfoot -13.496036911106428 -4.9122712822902095
ltoes -17.66866751261406
rfemur -29.986495917284987 5.360806110539308 18.333637454155323
rtibia 17.63398629501529
rfoot -4.669731410291474 -11.20578140897305
rtoes -3.331300529392683
lowerback 9.549211349271673 -1.5570120930156315 -4.263137157949282
upperback 0.30933155099827064 -2.4602352224625594 1.7324503967644187
thorax -4.791096456284983 -1.0920544579828695 4.634364003664877
lowerneck -16.72101177445469 -2.5227645443108555 -2.605659437634375
upperneck 19.322236437201802 -3.0355013647733964 1.0655138922138145
head 8.865181012154792 -1.49672908631796 0.38795097983996396
lclavicle -9.832207629206168e-16 -8.272811802197393e-16
lhumerus -20.11069225499959 -3.9007167242377507 79.80734862066157
lradius 30.219471556859602
lwrist 8.26616397316754
lhand -31.31325897001272 19.933354524240592
lfingers 7.125020000000057
lthumb -4.585357825803711 49.88503191086554
rclavicle -9.832207629206168e-16 -8.272811802197393e-16
rhumerus -38.061410075492724 -28.75899456317868 -71.45679785520042
rradius 20.038838077519898
rwrist 10.852545215834535
rhand -17.471248349585792 30.364337050454647
rfingers 7.125020000000057
rthumb 8.78103857623237 -6.6583974883258605
